<svg version="1.1" id="Layer_1" xmlns="http://www.w3.org/2000/svg" xmlns:xlink="http://www.w3.org/1999/xlink" x="0px" y="0px"
	 width="100%" viewBox="0 0 500 500" enable-background="new 0 0 500 500" xml:space="preserve">
<path fill="#000000" opacity="1.000000" stroke="none" 
	d="
M501.000000,82.000015 
	C501.000000,132.687561 501.000000,183.375122 500.671448,234.826096 
	C499.890961,234.784302 499.260956,234.029968 499.014130,233.166168 
	C495.783508,221.860367 489.851593,211.923645 481.346558,204.126892 
	C468.361481,192.223175 452.889435,186.182892 434.817169,186.883133 
	C418.772797,187.504791 404.921387,192.464813 392.990814,203.416580 
	C374.580078,220.316895 368.742004,241.289612 373.149139,265.128754 
	C376.933075,285.597076 389.166412,300.359650 407.581024,309.858856 
	C421.824402,317.206329 437.121063,317.721619 452.363220,314.675812 
	C464.266937,312.297089 474.585175,305.856049 483.061462,297.235962 
	C490.574371,289.595551 495.890869,280.340851 499.040009,269.959442 
	C499.276459,269.179810 500.327545,268.647339 501.000000,268.000000 
	C501.000000,318.354218 501.000000,368.708466 500.671448,419.826111 
	C499.890930,419.783447 499.274384,419.027435 499.011658,418.163818 
	C494.884979,404.599823 487.277374,393.340149 476.117828,384.682648 
	C452.630768,366.461487 414.650055,367.554138 392.845673,388.437958 
	C374.769958,405.750488 369.102417,426.412048 373.067474,450.323273 
	C375.192871,463.140533 381.753204,473.993835 390.754456,483.027405 
	C398.319733,490.619812 407.646667,495.886017 418.037170,499.039764 
	C418.817871,499.276703 419.351532,500.327515 420.000000,501.000000 
	C369.645782,501.000000 319.291534,501.000000 268.172668,500.666412 
	C267.885895,499.902496 268.297150,499.229553 268.851410,499.077332 
	C283.537750,495.043915 295.233093,486.952118 304.222229,474.507965 
	C313.410492,461.788239 316.635071,447.794678 316.105865,432.337616 
	C315.516785,415.130798 308.438660,400.804108 296.489502,389.343658 
	C284.084076,377.445618 268.804626,371.528290 251.075256,371.862396 
	C232.051361,372.220947 216.375702,378.857910 203.501678,392.918823 
	C188.319336,409.500916 184.479538,428.978394 188.073944,450.387085 
	C190.222168,463.182190 196.766708,474.033844 205.775436,483.050659 
	C213.344055,490.626190 222.658401,495.891571 233.040588,499.039978 
	C233.820160,499.276367 234.352661,500.327545 235.000000,501.000000 
	C184.312439,501.000000 133.624878,501.000000 82.172653,500.666443 
	C81.886604,499.902466 82.300690,499.219910 82.853241,499.078552 
	C97.392136,495.358582 109.079887,487.234558 117.878502,475.302155 
	C129.290390,459.825653 132.449310,442.287903 128.980087,423.526672 
	C125.903679,406.889893 117.235115,393.863037 103.558586,383.857178 
	C88.280838,372.679840 71.396629,370.094208 53.144482,372.970367 
	C29.831968,376.643921 8.674908,396.001617 2.939003,419.058411 
	C2.749720,419.819336 1.666518,420.357819 1.000002,421.000000 
	C1.000000,369.979095 1.000000,318.958221 1.404815,267.473389 
	C2.200832,267.418365 2.839284,267.770874 2.947372,268.244385 
	C6.376130,283.265625 14.847457,294.916229 27.034145,303.981171 
	C42.580578,315.545258 60.140450,318.358032 78.813721,314.944977 
	C95.257217,311.939514 108.154121,303.229584 118.073380,289.735321 
	C129.499283,274.191406 132.225449,256.911682 128.958450,238.405579 
	C126.044304,221.898224 117.319725,208.889359 103.899956,199.003906 
	C88.630203,187.755676 71.554314,185.079315 53.085445,187.932495 
	C29.371925,191.595856 9.306701,211.188980 2.950310,233.561600 
	C2.688073,234.484604 1.667352,235.192093 1.000001,236.000000 
	C1.000000,184.645767 1.000000,133.291550 1.404012,81.473297 
	C2.177746,81.254837 2.810951,81.442329 2.879680,81.754219 
	C8.461781,107.084717 31.260502,127.039177 57.106827,129.916138 
	C78.532799,132.301071 97.705238,126.316368 112.596992,110.544807 
	C127.783073,94.461555 133.389282,74.811562 128.947479,52.976818 
	C123.667213,27.020372 107.934280,10.373973 82.468414,2.932049 
	C81.844063,2.749594 81.483559,1.664240 81.000000,1.000000 
	C132.354233,1.000000 183.708450,1.000000 235.827942,1.337781 
	C236.111313,2.103020 235.684540,2.809304 235.139435,2.917053 
	C222.300812,5.454834 212.262100,12.468781 203.513275,21.931406 
	C188.249802,38.440205 184.464752,57.982525 188.078247,79.387413 
	C190.297546,92.533585 196.908401,103.837929 206.508621,112.720200 
	C219.560791,124.796234 235.165100,130.773895 253.466049,130.165375 
	C272.811188,129.522141 288.344879,122.124664 300.904633,107.647408 
	C314.823944,91.603065 318.886536,72.918930 314.886322,52.611420 
	C309.820770,26.895571 293.990479,10.538898 268.966705,2.944491 
	C268.186310,2.707651 267.650055,1.666293 267.000000,0.999999 
	C318.020905,1.000000 369.041779,1.000000 420.827942,1.337806 
	C421.256348,2.040675 420.971008,2.652181 420.575195,2.734869 
	C409.851715,4.974998 400.850067,10.170425 392.789978,17.604391 
	C374.553955,34.423836 368.806366,55.277615 373.134399,78.969513 
	C376.845581,99.284904 388.856995,113.937042 407.057037,123.556763 
	C421.298096,131.083923 436.562469,131.670151 451.825562,128.796341 
	C464.113556,126.482697 474.723083,119.840508 483.390015,110.905853 
	C490.730164,103.338905 495.955078,94.196060 499.040039,83.962944 
	C499.275269,83.182602 500.327545,82.648560 501.000000,82.000015 
M302.572205,211.046722 
	C299.976532,208.459564 297.397217,205.855728 294.782471,203.287994 
	C279.665039,188.442261 260.730499,184.869705 240.936935,187.378128 
	C226.440414,189.215286 213.995667,196.573761 203.610626,207.637604 
	C188.974823,223.230072 184.862091,241.902969 187.325439,261.917725 
	C189.162445,276.843384 197.050278,289.307831 208.221130,300.001221 
	C226.035309,317.053925 257.860382,320.696228 279.171875,310.418945 
	C292.151489,304.159668 301.976440,294.605316 308.912628,282.190979 
	C316.351868,268.876190 317.419678,254.438461 315.210632,239.573792 
	C313.658966,229.132553 309.057922,220.069641 302.572205,211.046722 
z"/>
<path fill="#FFFFFF" opacity="1.000000" stroke="none" 
	d="
M420.468658,501.000000 
	C419.351532,500.327515 418.817871,499.276703 418.037170,499.039764 
	C407.646667,495.886017 398.319733,490.619812 390.754456,483.027405 
	C381.753204,473.993835 375.192871,463.140533 373.067474,450.323273 
	C369.102417,426.412048 374.769958,405.750488 392.845673,388.437958 
	C414.650055,367.554138 452.630768,366.461487 476.117828,384.682648 
	C487.277374,393.340149 494.884979,404.599823 499.011658,418.163818 
	C499.274384,419.027435 499.890930,419.783447 500.671448,420.294739 
	C501.000000,430.687561 501.000000,441.375122 500.671448,452.236572 
	C499.969757,452.737061 499.372437,452.998322 499.255554,453.399506 
	C492.369629,477.037720 477.247284,492.412292 453.500763,499.226044 
	C453.189758,499.315247 453.160645,500.386871 453.000000,501.000000 
	C442.312439,501.000000 431.624878,501.000000 420.468658,501.000000 
z"/>
<path fill="#FFFFFF" opacity="1.000000" stroke="none" 
	d="
M501.000000,81.531357 
	C500.327545,82.648560 499.275269,83.182602 499.040039,83.962944 
	C495.955078,94.196060 490.730164,103.338905 483.390015,110.905853 
	C474.723083,119.840508 464.113556,126.482697 451.825562,128.796341 
	C436.562469,131.670151 421.298096,131.083923 407.057037,123.556763 
	C388.856995,113.937042 376.845581,99.284904 373.134399,78.969513 
	C368.806366,55.277615 374.553955,34.423836 392.789978,17.604391 
	C400.850067,10.170425 409.851715,4.974998 420.575195,2.734869 
	C420.971008,2.652181 421.256348,2.040675 421.296570,1.337806 
	C431.020905,1.000000 441.041779,1.000000 451.234741,1.337806 
	C452.218262,2.116473 452.981628,2.769864 453.848419,2.966033 
	C465.185089,5.531574 474.769165,11.501004 482.762970,19.522848 
	C490.398132,27.184811 495.956390,36.478012 499.041718,47.053204 
	C499.267395,47.826733 500.327728,48.356766 501.000000,49.000000 
	C501.000000,59.687561 501.000000,70.375122 501.000000,81.531357 
z"/>
<path fill="#FFFFFF" opacity="1.000000" stroke="none" 
	d="
M1.000002,421.468658 
	C1.666518,420.357819 2.749720,419.819336 2.939003,419.058411 
	C8.674908,396.001617 29.831968,376.643921 53.144482,372.970367 
	C71.396629,370.094208 88.280838,372.679840 103.558586,383.857178 
	C117.235115,393.863037 125.903679,406.889893 128.980087,423.526672 
	C132.449310,442.287903 129.290390,459.825653 117.878502,475.302155 
	C109.079887,487.234558 97.392136,495.358582 82.853241,499.078552 
	C82.300690,499.219910 81.886604,499.902466 81.703995,500.666443 
	C71.312439,501.000000 60.624878,501.000000 49.763424,500.671448 
	C49.118431,499.908966 48.717670,499.240295 48.166088,499.075043 
	C24.589615,492.012360 9.143457,477.019196 2.904630,452.936554 
	C2.788914,452.489868 1.657510,452.306305 1.000005,452.000000 
	C1.000000,441.979095 1.000000,431.958221 1.000002,421.468658 
z"/>
<path fill="#FFFFFF" opacity="1.000000" stroke="none" 
	d="
M501.000000,267.531342 
	C500.327545,268.647339 499.276459,269.179810 499.040009,269.959442 
	C495.890869,280.340851 490.574371,289.595551 483.061462,297.235962 
	C474.585175,305.856049 464.266937,312.297089 452.363220,314.675812 
	C437.121063,317.721619 421.824402,317.206329 407.581024,309.858856 
	C389.166412,300.359650 376.933075,285.597076 373.149139,265.128754 
	C368.742004,241.289612 374.580078,220.316895 392.990814,203.416580 
	C404.921387,192.464813 418.772797,187.504791 434.817169,186.883133 
	C452.889435,186.182892 468.361481,192.223175 481.346558,204.126892 
	C489.851593,211.923645 495.783508,221.860367 499.014130,233.166168 
	C499.260956,234.029968 499.890961,234.784302 500.671448,235.294754 
	C501.000000,245.687561 501.000000,256.375122 501.000000,267.531342 
z"/>
<path fill="#FFFFFF" opacity="1.000000" stroke="none" 
	d="
M235.468658,501.000000 
	C234.352661,500.327545 233.820160,499.276367 233.040588,499.039978 
	C222.658401,495.891571 213.344055,490.626190 205.775436,483.050659 
	C196.766708,474.033844 190.222168,463.182190 188.073944,450.387085 
	C184.479538,428.978394 188.319336,409.500916 203.501678,392.918823 
	C216.375702,378.857910 232.051361,372.220947 251.075256,371.862396 
	C268.804626,371.528290 284.084076,377.445618 296.489502,389.343658 
	C308.438660,400.804108 315.516785,415.130798 316.105865,432.337616 
	C316.635071,447.794678 313.410492,461.788239 304.222229,474.507965 
	C295.233093,486.952118 283.537750,495.043915 268.851410,499.077332 
	C268.297150,499.229553 267.885895,499.902496 267.703979,500.666412 
	C257.312439,501.000000 246.624878,501.000000 235.468658,501.000000 
z"/>
<path fill="#FFFFFF" opacity="1.000000" stroke="none" 
	d="
M266.531342,0.999999 
	C267.650055,1.666293 268.186310,2.707651 268.966705,2.944491 
	C293.990479,10.538898 309.820770,26.895571 314.886322,52.611420 
	C318.886536,72.918930 314.823944,91.603065 300.904633,107.647408 
	C288.344879,122.124664 272.811188,129.522141 253.466049,130.165375 
	C235.165100,130.773895 219.560791,124.796234 206.508621,112.720200 
	C196.908401,103.837929 190.297546,92.533585 188.078247,79.387413 
	C184.464752,57.982525 188.249802,38.440205 203.513275,21.931406 
	C212.262100,12.468781 222.300812,5.454834 235.139435,2.917053 
	C235.684540,2.809304 236.111313,2.103020 236.296600,1.337781 
	C246.020889,1.000000 256.041779,1.000000 266.531342,0.999999 
z"/>
<path fill="#FFFFFF" opacity="1.000000" stroke="none" 
	d="
M1.000001,236.468658 
	C1.667352,235.192093 2.688073,234.484604 2.950310,233.561600 
	C9.306701,211.188980 29.371925,191.595856 53.085445,187.932495 
	C71.554314,185.079315 88.630203,187.755676 103.899956,199.003906 
	C117.319725,208.889359 126.044304,221.898224 128.958450,238.405579 
	C132.225449,256.911682 129.499283,274.191406 118.073380,289.735321 
	C108.154121,303.229584 95.257217,311.939514 78.813721,314.944977 
	C60.140450,318.358032 42.580578,315.545258 27.034145,303.981171 
	C14.847457,294.916229 6.376130,283.265625 2.947372,268.244385 
	C2.839284,267.770874 2.200832,267.418365 1.404815,267.004730 
	C1.000000,256.979095 1.000000,246.958206 1.000001,236.468658 
z"/>
<path fill="#FFFFFF" opacity="1.000000" stroke="none" 
	d="
M80.531342,1.000000 
	C81.483559,1.664240 81.844063,2.749594 82.468414,2.932049 
	C107.934280,10.373973 123.667213,27.020372 128.947479,52.976818 
	C133.389282,74.811562 127.783073,94.461555 112.596992,110.544807 
	C97.705238,126.316368 78.532799,132.301071 57.106827,129.916138 
	C31.260502,127.039177 8.461781,107.084717 2.879680,81.754219 
	C2.810951,81.442329 2.177746,81.254837 1.404012,81.004639 
	C1.000000,70.979103 1.000000,60.958210 1.404818,50.463932 
	C2.105062,49.894077 2.621584,49.855953 2.664618,49.692879 
	C9.133462,25.179350 24.660583,9.681674 49.034893,2.897819 
	C49.496876,2.769240 49.684414,1.654581 50.000000,1.000000 
	C60.020893,1.000000 70.041786,1.000000 80.531342,1.000000 
z"/>
<path fill="#000000" opacity="1.000000" stroke="none" 
	d="
M49.531342,1.000000 
	C49.684414,1.654581 49.496876,2.769240 49.034893,2.897819 
	C24.660583,9.681674 9.133462,25.179350 2.664618,49.692879 
	C2.621584,49.855953 2.105062,49.894077 1.404818,49.995274 
	C1.000000,33.739925 1.000000,17.479853 1.000000,1.000000 
	C17.020226,1.000000 33.041454,1.000000 49.531342,1.000000 
z"/>
<path fill="#000000" opacity="1.000000" stroke="none" 
	d="
M501.000000,48.531342 
	C500.327728,48.356766 499.267395,47.826733 499.041718,47.053204 
	C495.956390,36.478012 490.398132,27.184811 482.762970,19.522848 
	C474.769165,11.501004 465.185089,5.531574 453.848419,2.966033 
	C452.981628,2.769864 452.218262,2.116473 451.703430,1.337806 
	C468.259308,1.000000 484.518616,1.000000 501.000000,1.000000 
	C501.000000,16.686863 501.000000,32.374771 501.000000,48.531342 
z"/>
<path fill="#000000" opacity="1.000000" stroke="none" 
	d="
M1.000005,452.468628 
	C1.657510,452.306305 2.788914,452.489868 2.904630,452.936554 
	C9.143457,477.019196 24.589615,492.012360 48.166088,499.075043 
	C48.717670,499.240295 49.118431,499.908966 49.294765,500.671448 
	C33.072510,501.000000 17.145018,501.000000 1.000000,501.000000 
	C1.000000,484.979767 1.000000,468.958527 1.000005,452.468628 
z"/>
<path fill="#000000" opacity="1.000000" stroke="none" 
	d="
M453.468658,501.000000 
	C453.160645,500.386871 453.189758,499.315247 453.500763,499.226044 
	C477.247284,492.412292 492.369629,477.037720 499.255554,453.399506 
	C499.372437,452.998322 499.969757,452.737061 500.671448,452.705261 
	C501.000000,468.926727 501.000000,484.853455 501.000000,501.000000 
	C485.313110,501.000000 469.625214,501.000000 453.468658,501.000000 
z"/>
<path fill="#FFFFFF" opacity="1.000000" stroke="none" 
	d="
M302.814514,211.317566 
	C309.057922,220.069641 313.658966,229.132553 315.210632,239.573792 
	C317.419678,254.438461 316.351868,268.876190 308.912628,282.190979 
	C301.976440,294.605316 292.151489,304.159668 279.171875,310.418945 
	C257.860382,320.696228 226.035309,317.053925 208.221130,300.001221 
	C197.050278,289.307831 189.162445,276.843384 187.325439,261.917725 
	C184.862091,241.902969 188.974823,223.230072 203.610626,207.637604 
	C213.995667,196.573761 226.440414,189.215286 240.936935,187.378128 
	C260.730499,184.869705 279.665039,188.442261 294.782471,203.287994 
	C297.397217,205.855728 299.976532,208.459564 302.814514,211.317566 
z"/>
</svg>