<svg width="302" height="302" xmlns="http://www.w3.org/2000/svg" xmlns:xlink="http://www.w3.org/1999/xlink" overflow="hidden"><defs><clipPath id="clip0"><rect x="0" y="0" width="302" height="302"/></clipPath></defs><g clip-path="url(#clip0)"><rect x="0" y="0" width="302" height="302" fill="#FFFFFF"/><rect x="0" y="0" width="302" height="302" fill="#F2F0D5"/><path d="M5.49997 151.5C5.49997 70.8664 70.8664 5.49997 151.5 5.49997 232.134 5.49997 297.5 70.8664 297.5 151.5 297.5 232.134 232.134 297.5 151.5 297.5 70.8664 297.5 5.49997 232.134 5.49997 151.5Z" stroke="#F2F0D5" stroke-width="10.6549" stroke-miterlimit="8" fill="#F25E5E" fill-rule="evenodd"/><path d="M71.4744 122.292 81.8148 122.292C83.5234 122.292 84.7902 122.542 85.6151 123.043 86.4399 123.544 87.3532 124.884 88.3548 127.064L116.724 186.19 143.327 126.357C144.092 124.708 144.903 123.618 145.757 123.087 146.611 122.557 147.804 122.292 149.336 122.292L159.853 122.292C160.914 122.292 161.724 122.483 162.284 122.866 162.844 123.249 163.123 123.824 163.123 124.59 163.123 125.356 162.858 126.239 162.328 127.241L107.18 248.497C106.531 249.852 105.883 250.883 105.235 251.59 104.587 252.297 103.674 252.651 102.495 252.651L89.2386 252.651C88.4137 252.651 87.7951 252.503 87.3827 252.209 86.9702 251.914 86.764 251.443 86.764 250.795 86.764 250.206 86.9997 249.44 87.471 248.497L107.003 206.517 68.8231 127.241C68.3517 126.181 68.1161 125.297 68.1161 124.59 68.1161 123.058 69.2355 122.292 71.4744 122.292ZM222.795 82.3446 232.251 82.3446C234.608 82.3446 235.786 83.1106 235.786 84.6425 235.786 85.1727 235.639 85.7914 235.345 86.4984L184.262 208.992C183.555 210.7 182.818 211.805 182.052 212.306 181.286 212.807 180.108 213.057 178.517 213.057L169.06 213.057C166.821 213.057 165.702 212.291 165.702 210.759 165.702 210.229 165.849 209.581 166.144 208.815L217.227 86.3217C217.934 84.5541 218.641 83.4494 219.348 83.0075 220.055 82.5656 221.204 82.3446 222.795 82.3446Z" stroke="#000000" stroke-width="6" stroke-linejoin="round" stroke-miterlimit="10" fill="#F2F0D5" fill-rule="evenodd"/><text fill="#000000" fill-opacity="0" font-family="Arial,Arial_MSFontService,sans-serif" font-size="170.306" x="68.1161" y="231.363">y/</text></g></svg>